<svg width="81" height="80" viewBox="0 0 81 80" fill="none" xmlns="http://www.w3.org/2000/svg">
<g clip-path="url(#clip0_29_457)">
<path d="M56.5 0H24.5C11.2452 0 0.5 10.7452 0.5 24V56C0.5 69.2548 11.2452 80 24.5 80H56.5C69.7548 80 80.5 69.2548 80.5 56V24C80.5 10.7452 69.7548 0 56.5 0Z" fill="url(#paint0_linear_29_457)"/>
<g opacity="0.25" filter="url(#filter0_f_29_457)">
<path d="M50.0198 40H29.5831C20.1773 40 12.5525 47.6248 12.5525 57.0306C12.5525 66.4363 20.1773 74.0611 29.5831 74.0611H50.0198C59.4255 74.0611 67.0503 66.4363 67.0503 57.0306C67.0503 47.6248 59.4255 40 50.0198 40Z" fill="url(#paint1_linear_29_457)"/>
</g>
<mask id="mask0_29_457" style="mask-type:luminance" maskUnits="userSpaceOnUse" x="10" y="10" width="60" height="60">
<path d="M69.9393 10.3999H10.9V69.4392H69.9393V10.3999Z" fill="white"/>
</mask>
<g mask="url(#mask0_29_457)">
<path d="M45.9393 10.3999H34.9C21.6452 10.3999 10.9 21.1451 10.9 34.3999V45.4392C10.9 58.694 21.6452 69.4392 34.9 69.4392H45.9393C59.1941 69.4392 69.9393 58.694 69.9393 45.4392V34.3999C69.9393 21.1451 59.1941 10.3999 45.9393 10.3999Z" fill="url(#paint2_linear_29_457)"/>
<path d="M71.9084 45.6507C70.1034 59.7193 59.571 70.8797 46.2325 72.8965L31.0428 56.9193C29.0195 55.3577 27.3222 53.3761 26.0561 51.0969C24.7899 48.8177 23.9818 46.2895 23.6815 43.6687C23.3814 41.0478 23.5955 38.3901 24.3108 35.8597C25.0261 33.3294 26.2273 30.9804 27.8401 28.9579C29.4529 26.9355 31.443 25.2826 33.6873 24.1016C35.9316 22.9205 38.3824 22.2364 40.8882 22.0916C43.3938 21.9467 45.9012 22.3441 48.255 23.2594C50.6089 24.1746 52.7592 25.5881 54.573 27.4125C54.7623 27.6042 54.9482 27.7997 55.1304 27.9989L71.9084 45.6507Z" fill="url(#paint3_linear_29_457)" fill-opacity="0.1"/>
<path d="M40.4196 22.7242C37.0187 22.7242 33.6941 23.7327 30.8664 25.6222C28.0386 27.5116 25.8347 30.1971 24.5332 33.3392C23.2317 36.4812 22.8912 39.9386 23.5547 43.2742C24.2181 46.6098 25.8559 49.6737 28.2607 52.0785C30.6655 54.4833 33.7294 56.121 37.0649 56.7845C40.4005 57.4479 43.8579 57.1074 47 55.8059C50.142 54.5045 52.8275 52.3005 54.7169 49.4727C56.6064 46.645 57.6149 43.3205 57.6149 39.9195C57.6149 35.359 55.8032 30.9854 52.5785 27.7606C49.3537 24.5358 44.98 22.7242 40.4196 22.7242ZM46.54 41.5747L38.6068 46.1542C38.3164 46.3222 37.9869 46.4106 37.6515 46.4108C37.316 46.411 36.9864 46.3228 36.6958 46.1551C36.4052 45.9874 36.164 45.7462 35.9962 45.4557C35.8284 45.1652 35.7402 44.8356 35.7402 44.5002V35.339C35.7402 35.0034 35.8284 34.6739 35.9962 34.3834C36.164 34.0929 36.4052 33.8516 36.6958 33.684C36.9864 33.5163 37.316 33.4281 37.6515 33.4282C37.9869 33.4284 38.3164 33.5169 38.6068 33.6849L46.54 38.2643C46.8305 38.4322 47.0717 38.6734 47.2394 38.964C47.4072 39.2545 47.4954 39.5841 47.4954 39.9195C47.4954 40.255 47.4072 40.5846 47.2394 40.8751C47.0717 41.1657 46.8305 41.407 46.54 41.5747Z" fill="white"/>
<path d="M32.0712 24.5856L31.2409 24.3324C31.0163 24.2639 30.8405 24.0881 30.772 23.8635L30.5188 23.0332C30.4961 22.9585 30.3905 22.9585 30.3677 23.0332L30.1146 23.8635C30.0461 24.0881 29.8703 24.2639 29.6457 24.3324L28.8153 24.5856C28.7408 24.6083 28.7408 24.7139 28.8153 24.7366L29.6457 24.9898C29.8703 25.0583 30.0461 25.234 30.1146 25.4587L30.3677 26.289C30.3905 26.3636 30.4961 26.3636 30.5188 26.289L30.772 25.4587C30.8405 25.234 31.0163 25.0583 31.2409 24.9898L32.0712 24.7366C32.1458 24.7139 32.1458 24.6083 32.0712 24.5856Z" fill="white"/>
<path d="M27.9327 21.7576L26.5624 21.3398C26.1918 21.2268 25.9017 20.9367 25.7886 20.566L25.3709 19.1958C25.3334 19.0727 25.159 19.0727 25.1215 19.1958L24.7038 20.566C24.5907 20.9367 24.3006 21.2268 23.93 21.3398L22.5597 21.7576C22.4366 21.7952 22.4366 21.9694 22.5597 22.0069L23.93 22.4248C24.3006 22.5378 24.5907 22.8279 24.7038 23.1985L25.1215 24.5688C25.159 24.6919 25.3334 24.6919 25.3709 24.5688L25.7886 23.1985C25.9017 22.8279 26.1918 22.5378 26.5624 22.4248L27.9327 22.0069C28.0558 21.9694 28.0558 21.7952 27.9327 21.7576Z" fill="white"/>
</g>
</g>
<defs>
<filter id="filter0_f_29_457" x="7.09249" y="34.54" width="65.4179" height="44.9811" filterUnits="userSpaceOnUse" color-interpolation-filters="sRGB">
<feFlood flood-opacity="0" result="BackgroundImageFix"/>
<feBlend mode="normal" in="SourceGraphic" in2="BackgroundImageFix" result="shape"/>
<feGaussianBlur stdDeviation="2.73" result="effect1_foregroundBlur_29_457"/>
</filter>
<linearGradient id="paint0_linear_29_457" x1="7.22489" y1="5.24018" x2="66.6135" y2="80" gradientUnits="userSpaceOnUse">
<stop stop-color="#FBFBFC"/>
<stop offset="1" stop-color="#DBDDE8"/>
</linearGradient>
<linearGradient id="paint1_linear_29_457" x1="43.5678" y1="75.077" x2="32.4593" y2="35.9234" gradientUnits="userSpaceOnUse">
<stop offset="0.0729167" stop-color="#303D4D"/>
<stop offset="0.927083" stop-color="#526378"/>
</linearGradient>
<linearGradient id="paint2_linear_29_457" x1="44.5" y1="71.1999" x2="16.9" y2="10.3999" gradientUnits="userSpaceOnUse">
<stop offset="0.0729167" stop-color="#402777"/>
<stop offset="0.927083" stop-color="#6D42CD"/>
</linearGradient>
<linearGradient id="paint3_linear_29_457" x1="30.9943" y1="26.2109" x2="78.4161" y2="85.8704" gradientUnits="userSpaceOnUse">
<stop stop-color="white"/>
<stop offset="1" stop-color="white"/>
</linearGradient>
<clipPath id="clip0_29_457">
<rect width="80" height="80" fill="white" transform="translate(0.5)"/>
</clipPath>
</defs>
</svg>
