<svg width="16" height="16" viewBox="0 0 16 16" fill="none" xmlns="http://www.w3.org/2000/svg">
<g clip-path="url(#clip0_81_116)">
<path d="M8.00047 15.7401C12.2685 15.7401 15.75 12.2631 15.75 7.99948C15.75 3.73589 12.2685 0.259766 8.00047 0.259766C3.73241 0.259766 0.25 3.73683 0.25 7.99948C0.25 12.2621 3.73147 15.7401 8.00047 15.7401Z" fill="#FB8500"/>
<path d="M8.00047 0.259766C3.73147 0.259766 0.25 3.73683 0.25 7.99948C0.25 12.2621 3.73147 15.7401 8.00047 15.7401C12.2695 15.7401 15.75 12.2631 15.75 7.99948C15.75 3.73589 12.2685 0.259766 8.00047 0.259766ZM8.00047 13.9086C4.74147 13.9086 2.08381 11.2543 2.08381 7.99945C2.08381 4.74458 4.74147 2.0903 8.00047 2.0903C11.2595 2.0903 13.9171 4.74552 13.9171 7.99945C13.9171 11.2534 11.2585 13.9086 8.00047 13.9086Z" fill="#FFB703"/>
<path d="M11.8827 6.71444C11.8612 6.64825 11.8048 6.59941 11.7362 6.58756L9.3129 6.17L8.16634 3.99709C8.13387 3.93559 8.07006 3.89709 8.00049 3.89709C7.93093 3.89709 7.86712 3.93559 7.83465 3.99709L6.68806 6.17L4.26471 6.58756C4.19612 6.59938 4.13971 6.64822 4.11821 6.71444C4.09671 6.78063 4.11365 6.85328 4.16221 6.90316L5.87668 8.66385L5.52587 11.0947C5.51593 11.1635 5.54493 11.2323 5.60121 11.2731C5.63384 11.2968 5.67253 11.3089 5.71146 11.3089C5.73965 11.3089 5.76796 11.3026 5.79418 11.2897L8.00046 10.2045L10.2067 11.2897C10.2692 11.3204 10.3435 11.314 10.3997 11.2731C10.456 11.2322 10.485 11.1635 10.4751 11.0947L10.1242 8.66381L11.8387 6.90313C11.8873 6.85325 11.9042 6.7806 11.8827 6.71441L11.8827 6.71444Z" fill="#FCD227"/>
<path d="M2.52478 2.53073L3.82022 3.82452C4.892 2.75408 6.37106 2.09033 8.0005 2.09033V0.259766C5.86622 0.259766 3.92875 1.12886 2.52478 2.53073Z" fill="#FCD227"/>
<path d="M13.4761 13.4682L12.1807 12.1744C11.1088 13.245 9.62955 13.9086 8.00043 13.9086V15.7401C10.1346 15.7401 12.0722 14.8707 13.4761 13.4683L13.4761 13.4682Z" fill="#FCD227"/>
<path d="M13.4758 2.53113L12.1806 3.82469C13.2525 4.89522 13.9171 6.3725 13.9171 7.99947H15.75C15.75 5.86816 14.8796 3.93322 13.4758 2.53113Z" fill="#FCD227"/>
<path d="M2.52434 13.4687L3.82 12.1747C2.74822 11.1042 2.08378 9.62695 2.08378 7.99951H0.25C0.25 10.1313 1.12038 12.0665 2.52434 13.4687Z" fill="#FCD227"/>
</g>
<defs>
<clipPath id="clip0_81_116">
<rect width="16" height="16" fill="white"/>
</clipPath>
</defs>
</svg>
