<svg width="10" height="10" viewBox="0 0 10 10" fill="none" xmlns="http://www.w3.org/2000/svg">
<path d="M5 9.44366C4.85764 9.44366 4.72038 9.39209 4.61342 9.2984C4.20944 8.94516 3.81996 8.6132 3.47633 8.32039L3.47458 8.31886C2.46712 7.46033 1.59714 6.7189 0.991821 5.98854C0.31517 5.17204 0 4.39789 0 3.55217C0 2.73048 0.281754 1.97243 0.793304 1.41754C1.31096 0.856094 2.02126 0.546875 2.79358 0.546875C3.37082 0.546875 3.89946 0.72937 4.36478 1.08925C4.59961 1.2709 4.81247 1.49323 5 1.75255C5.18761 1.49323 5.40039 1.2709 5.6353 1.08925C6.10062 0.72937 6.62926 0.546875 7.2065 0.546875C7.97874 0.546875 8.68912 0.856094 9.20677 1.41754C9.71832 1.97243 10 2.73048 10 3.55217C10 4.39789 9.68491 5.17204 9.00826 5.98846C8.40294 6.7189 7.53304 7.46025 6.52573 8.31871C6.18149 8.61198 5.7914 8.94447 5.38651 9.29855C5.27962 9.39209 5.14229 9.44366 5 9.44366ZM2.79358 1.13266C2.18681 1.13266 1.62941 1.37482 1.22391 1.81458C0.812378 2.26097 0.585709 2.87804 0.585709 3.55217C0.585709 4.26346 0.850067 4.8996 1.44279 5.61478C2.01569 6.30608 2.86781 7.03224 3.85445 7.87308L3.85628 7.8746C4.2012 8.16856 4.59221 8.50182 4.99916 8.85765C5.40855 8.50113 5.80017 8.16734 6.14578 7.87292C7.13234 7.03209 7.98439 6.30608 8.55728 5.61478C9.14993 4.8996 9.41429 4.26346 9.41429 3.55217C9.41429 2.87804 9.18762 2.26097 8.77609 1.81458C8.37067 1.37482 7.81319 1.13266 7.2065 1.13266C6.76201 1.13266 6.35391 1.27396 5.99358 1.55258C5.67245 1.80099 5.44876 2.11502 5.31761 2.33475C5.25017 2.44774 5.13145 2.51518 5 2.51518C4.86855 2.51518 4.74983 2.44774 4.68239 2.33475C4.55132 2.11502 4.32762 1.80099 4.00642 1.55258C3.64609 1.27396 3.23799 1.13266 2.79358 1.13266Z" fill="white"/>
</svg>
