<svg width="25" height="24" viewBox="0 0 25 24" fill="none" xmlns="http://www.w3.org/2000/svg">
<path d="M20.6803 10.322L13.1803 2.82197C13.0584 2.70008 12.9138 2.60339 12.7545 2.53742C12.5953 2.47145 12.4246 2.4375 12.2522 2.4375C12.0798 2.4375 11.9091 2.47145 11.7499 2.53742C11.5906 2.60339 11.446 2.70008 11.3241 2.82197L3.82408 10.322C3.70187 10.4436 3.60498 10.5883 3.539 10.7476C3.47303 10.9069 3.43928 11.0777 3.4397 11.2501V20.2501C3.4397 20.3993 3.49896 20.5424 3.60445 20.6478C3.70994 20.7533 3.85302 20.8126 4.0022 20.8126H10.0022C10.1514 20.8126 10.2945 20.7533 10.3999 20.6478C10.5054 20.5424 10.5647 20.3993 10.5647 20.2501V14.8126H13.9397V20.2501C13.9397 20.3993 13.999 20.5424 14.1045 20.6478C14.2099 20.7533 14.353 20.8126 14.5022 20.8126H20.5022C20.6514 20.8126 20.7945 20.7533 20.9 20.6478C21.0054 20.5424 21.0647 20.3993 21.0647 20.2501V11.2501C21.0651 11.0777 21.0314 10.9069 20.9654 10.7476C20.8994 10.5883 20.8025 10.4436 20.6803 10.322ZM19.9397 19.6876H15.0647V14.2501C15.0647 14.1009 15.0054 13.9578 14.8999 13.8523C14.7945 13.7469 14.6514 13.6876 14.5022 13.6876H10.0022C9.85302 13.6876 9.70994 13.7469 9.60445 13.8523C9.49896 13.9578 9.4397 14.1009 9.4397 14.2501V19.6876H4.5647V11.2501C4.56456 11.2254 4.56929 11.201 4.57862 11.1781C4.58795 11.1553 4.6017 11.1345 4.61908 11.117L12.1191 3.61697C12.1365 3.5994 12.1572 3.58545 12.1801 3.57593C12.2029 3.56641 12.2274 3.56151 12.2522 3.56151C12.277 3.56151 12.3015 3.56641 12.3243 3.57593C12.3472 3.58545 12.3679 3.5994 12.3853 3.61697L19.8853 11.117C19.9027 11.1345 19.9165 11.1553 19.9258 11.1781C19.9351 11.201 19.9398 11.2254 19.9397 11.2501V19.6876Z" fill="#F4F4F4"/>
</svg>
