<svg width="19" height="19" viewBox="0 0 19 19" fill="none" xmlns="http://www.w3.org/2000/svg">
<path d="M5.99979 4.49984L3.9999 2.49995H2.99995V3.4999L4.99984 5.49979L5.99979 4.49984ZM6.99974 1.5H7.99969V3.4999H6.99974V1.5ZM10.9995 6.49974H12.9994V7.49969H10.9995V6.49974ZM11.9995 3.4999V2.49995H10.9995L8.99963 4.49984L9.99958 5.49979L11.9995 3.4999ZM2 6.49974H3.9999V7.49969H2V6.49974ZM6.99974 10.4995H7.99969V12.4994H6.99974V10.4995ZM2.99995 10.4995V11.4995H3.9999L5.99979 9.49958L4.99984 8.49963L2.99995 10.4995ZM17.7802 15.2803L7.84169 5.3418C7.77205 5.27211 7.68935 5.21682 7.59833 5.1791C7.50731 5.14138 7.40975 5.12197 7.31122 5.12197C7.21269 5.12197 7.11513 5.14138 7.02411 5.1791C6.93309 5.21682 6.8504 5.27211 6.78075 5.3418L5.8418 6.28075C5.77211 6.3504 5.71682 6.43309 5.6791 6.52411C5.64138 6.61513 5.62197 6.71269 5.62197 6.81122C5.62197 6.90975 5.64138 7.00731 5.6791 7.09833C5.71682 7.18935 5.77211 7.27205 5.8418 7.34169L15.7803 17.2802C15.8499 17.3499 15.9326 17.4051 16.0236 17.4429C16.1147 17.4806 16.2122 17.5 16.3107 17.5C16.4093 17.5 16.5068 17.4806 16.5979 17.4429C16.6889 17.4051 16.7716 17.3499 16.8412 17.2802L17.7802 16.3412C17.8499 16.2716 17.9051 16.1889 17.9429 16.0979C17.9806 16.0068 18 15.9093 18 15.8107C18 15.7122 17.9806 15.6147 17.9429 15.5236C17.9051 15.4326 17.8499 15.3499 17.7802 15.2803ZM9.49961 9.99955L6.49976 6.99971L7.49971 5.99976L10.4996 8.99961L9.49961 9.99955Z" fill="#E6E6E6"/>
</svg>
