<svg width="25" height="24" viewBox="0 0 25 24" fill="none" xmlns="http://www.w3.org/2000/svg">
<path d="M21.7388 19.9687C20.2566 17.4075 17.9297 15.6103 15.226 14.8481C16.5405 14.1799 17.5916 13.0885 18.2099 11.7498C18.8283 10.411 18.9777 8.90311 18.6341 7.4691C18.2906 6.03508 17.4741 4.75856 16.3162 3.84537C15.1584 2.93218 13.7268 2.43555 12.2522 2.43555C10.7776 2.43555 9.346 2.93218 8.18819 3.84537C7.03038 4.75856 6.21387 6.03508 5.87031 7.4691C5.52676 8.90311 5.67618 10.411 6.29449 11.7498C6.9128 13.0885 7.96395 14.1799 9.27847 14.8481C6.57472 15.6094 4.24784 17.4065 2.76565 19.9687C2.72495 20.0328 2.69763 20.1043 2.68531 20.1792C2.673 20.2541 2.67596 20.3306 2.69401 20.4043C2.71206 20.478 2.74482 20.5473 2.79034 20.608C2.83585 20.6687 2.89318 20.7195 2.95886 20.7575C3.02454 20.7955 3.09722 20.8197 3.17253 20.8289C3.24784 20.838 3.32422 20.8319 3.39708 20.8107C3.46994 20.7896 3.53777 20.7539 3.59649 20.7059C3.65522 20.6579 3.70361 20.5985 3.73878 20.5312C5.53972 17.4197 8.72159 15.5625 12.2522 15.5625C15.7828 15.5625 18.9647 17.4197 20.7657 20.5312C20.8008 20.5985 20.8492 20.6579 20.9079 20.7059C20.9667 20.7539 21.0345 20.7896 21.1074 20.8107C21.1802 20.8319 21.2566 20.838 21.3319 20.8289C21.4072 20.8197 21.4799 20.7955 21.5456 20.7575C21.6113 20.7195 21.6686 20.6687 21.7141 20.608C21.7596 20.5473 21.7924 20.478 21.8104 20.4043C21.8285 20.3306 21.8314 20.2541 21.8191 20.1792C21.8068 20.1043 21.7795 20.0328 21.7388 19.9687ZM6.81472 8.99998C6.81472 7.92455 7.13362 6.87326 7.7311 5.97907C8.32858 5.08488 9.1778 4.38794 10.1714 3.97639C11.1649 3.56484 12.2582 3.45716 13.313 3.66696C14.3678 3.87677 15.3367 4.39464 16.0971 5.15509C16.8576 5.91554 17.3754 6.88441 17.5852 7.93918C17.795 8.99395 17.6874 10.0873 17.2758 11.0808C16.8643 12.0744 16.1673 12.9236 15.2731 13.5211C14.3789 14.1186 13.3277 14.4375 12.2522 14.4375C10.8106 14.4357 9.42859 13.8623 8.40924 12.843C7.38989 11.8236 6.81645 10.4416 6.81472 8.99998Z" fill="#F4F4F4"/>
</svg>
