<svg width="16" height="16" viewBox="0 0 16 16" fill="none" xmlns="http://www.w3.org/2000/svg">
<path d="M9.15954 1.01996C9.39407 1.01546 9.62325 1.09364 9.80602 1.24066C9.98884 1.38783 10.1138 1.59543 10.1595 1.82562L10.4154 3.08539C10.6416 3.19565 10.8601 3.3211 11.0697 3.46039L12.2845 3.05023C12.3877 3.0163 12.4962 2.99961 12.6049 3.00043C12.7802 3.00061 12.953 3.04646 13.1049 3.13422C13.2566 3.22197 13.3825 3.34865 13.4701 3.50043L14.6498 5.50043C14.7735 5.7012 14.8222 5.93903 14.7875 6.1723C14.7527 6.40546 14.6371 6.6189 14.4603 6.77484L13.5004 7.61469V8.38031L14.4447 9.24554C14.619 9.39838 14.7353 9.60662 14.7728 9.83539C14.8102 10.0643 14.7665 10.2999 14.6498 10.5004L13.5101 12.5004C13.4225 12.6521 13.2965 12.7779 13.1449 12.8657C12.9931 12.9534 12.8203 13.0002 12.6449 13.0004C12.5363 13.0012 12.4278 12.9846 12.3246 12.9506L11.1146 12.5405C10.9033 12.6797 10.6832 12.8053 10.4554 12.9155L10.1996 14.1752C10.1538 14.4054 10.0288 14.6121 9.84606 14.7592C9.66325 14.9064 9.4342 14.9844 9.19958 14.9799H6.8402C6.60555 14.9844 6.37654 14.9064 6.19372 14.7592C6.01097 14.6121 5.88594 14.4054 5.8402 14.1752L5.58532 12.9155C5.35897 12.8052 5.13976 12.6798 4.93005 12.5405L3.7152 12.9506C3.61196 12.9846 3.50357 13.0013 3.39489 13.0004C3.21961 13.0002 3.04763 12.9534 2.89587 12.8657C2.74407 12.7779 2.61734 12.6523 2.52966 12.5004L1.34997 10.5004C1.22792 10.298 1.18158 10.0581 1.21911 9.82465C1.25672 9.59142 1.3758 9.37894 1.55505 9.22504L2.50036 8.38519V7.62054L1.55505 6.75531C1.38061 6.60237 1.26432 6.39344 1.22692 6.16449C1.18954 5.93562 1.23336 5.70087 1.34997 5.50043L2.52966 3.50043C2.61734 3.34856 2.74404 3.22198 2.89587 3.13422C3.04759 3.04658 3.21967 3.00063 3.39489 3.00043C3.50248 2.99311 3.61085 3.00254 3.7152 3.02972L4.90466 3.46039C5.11606 3.32101 5.33687 3.19566 5.56481 3.08539L5.81969 1.82562C5.86542 1.59543 5.99137 1.38783 6.17419 1.24066C6.35686 1.09377 6.58533 1.01554 6.81969 1.01996H9.15954ZM6.81969 2.00043L6.4652 3.79535C5.9705 3.97448 5.5112 4.24045 5.10973 4.58051L3.39489 4.00043L2.2152 6.00043L3.57458 7.2348C3.48213 7.75237 3.48213 8.28266 3.57458 8.80023L2.2152 10.0004L3.39489 12.0004L5.11462 11.4399C5.51748 11.7753 5.97441 12.0408 6.4652 12.225L6.81969 14.0004H9.18005L9.53454 12.2055C10.0292 12.0264 10.4886 11.7604 10.89 11.4203L12.6049 12.0004L13.7845 10.0004L12.4252 8.76508C12.5176 8.2477 12.5175 7.71801 12.4252 7.20062L13.7845 6.00043L12.6049 4.00043L10.8851 4.56C10.4823 4.22457 10.0253 3.95905 9.53454 3.77484L9.18005 2.00043H6.81969ZM7.41442 5.05804C7.99635 4.94229 8.59966 5.0019 9.14782 5.22894C9.696 5.45601 10.1649 5.84009 10.4945 6.33344C10.8241 6.82678 11.0004 7.40709 11.0004 8.00043C11.0043 8.39538 10.9289 8.78709 10.7797 9.15277C10.6303 9.51853 10.4096 9.85094 10.1302 10.1303C9.85087 10.4097 9.51848 10.6304 9.1527 10.7797C8.78703 10.929 8.39532 11.0044 8.00036 11.0004C7.40703 11.0004 6.8267 10.8242 6.33337 10.4946C5.84002 10.1649 5.45496 9.69607 5.2279 9.14789C5.00099 8.59983 4.94225 7.99627 5.05798 7.41449C5.17375 6.83293 5.45908 6.29871 5.87829 5.87933C6.29777 5.45986 6.83261 5.17384 7.41442 5.05804ZM8.00036 6.00043C7.73603 5.99427 7.47236 6.04175 7.22692 6.14008C6.98168 6.23841 6.75848 6.38586 6.57165 6.57269C6.38489 6.75956 6.23826 6.98272 6.14001 7.22797C6.04174 7.47334 5.9942 7.73618 6.00036 8.00043C5.99424 8.26468 6.04171 8.52753 6.14001 8.77289C6.2383 9.01816 6.38483 9.24129 6.57165 9.42816C6.75853 9.61504 6.98161 9.76245 7.22692 9.86078C7.47236 9.95911 7.73603 10.0066 8.00036 10.0004C8.26456 10.0065 8.5275 9.95906 8.77282 9.86078C9.01821 9.76245 9.24116 9.61509 9.42809 9.42816C9.61502 9.24122 9.76239 9.0183 9.86071 8.77289C9.959 8.52754 10.0065 8.26465 10.0004 8.00043C10.0065 7.73627 9.95891 7.47327 9.86071 7.22797C9.76243 6.98267 9.61491 6.75959 9.42809 6.57269C9.2412 6.3858 9.01815 6.23841 8.77282 6.14008C8.5275 6.04179 8.26456 5.99432 8.00036 6.00043Z" fill="white"/>
</svg>
