<svg width="30" height="31" viewBox="0 0 30 31" fill="none" xmlns="http://www.w3.org/2000/svg">
<rect y="0.347656" width="30" height="30" rx="15" fill="#F5F6F7" fill-opacity="0.05"/>
<path d="M18 17.4727C17.666 17.4726 17.3358 17.5431 17.031 17.6795C16.7261 17.816 16.4536 18.0154 16.2313 18.2646L13.175 16.3002C13.3069 16 13.375 15.6756 13.375 15.3477C13.375 15.0198 13.3069 14.6954 13.175 14.3952L16.2313 12.4308C16.63 12.8756 17.1817 13.1538 17.7763 13.2099C18.371 13.2661 18.965 13.0961 19.44 12.7339C19.9149 12.3716 20.2359 11.8437 20.339 11.2554C20.4421 10.667 20.3197 10.0614 19.9962 9.55926C19.6727 9.05712 19.1719 8.6953 18.5936 8.54592C18.0152 8.39655 17.4018 8.47059 16.8757 8.75328C16.3495 9.03597 15.9491 9.50656 15.7544 10.0713C15.5597 10.6359 15.5849 11.2533 15.825 11.8002L12.7688 13.7646C12.4481 13.406 12.0262 13.1533 11.5587 13.0398C11.0913 12.9263 10.6004 12.9574 10.151 13.129C9.70166 13.3006 9.315 13.6046 9.04221 14.0008C8.76941 14.397 8.62335 14.8667 8.62335 15.3477C8.62335 15.8287 8.76941 16.2984 9.04221 16.6946C9.315 17.0908 9.70166 17.3948 10.151 17.5664C10.6004 17.738 11.0913 17.7691 11.5587 17.6557C12.0262 17.5422 12.4481 17.2894 12.7688 16.9308L15.825 18.8952C15.6198 19.3638 15.5715 19.8862 15.6871 20.3845C15.8027 20.8829 16.0762 21.3305 16.4668 21.6609C16.8573 21.9913 17.3441 22.1868 17.8547 22.2182C18.3654 22.2496 18.8725 22.1154 19.3006 21.8354C19.7287 21.5553 20.055 21.1446 20.2309 20.6642C20.4068 20.1838 20.4228 19.6594 20.2767 19.1692C20.1305 18.6789 19.83 18.249 19.4197 17.9433C19.0095 17.6376 18.5116 17.4726 18 17.4727ZM18 9.22271C18.3214 9.22271 18.6356 9.31801 18.9028 9.49657C19.17 9.67513 19.3783 9.92892 19.5013 10.2258C19.6243 10.5228 19.6565 10.8495 19.5938 11.1647C19.5311 11.4799 19.3763 11.7695 19.1491 11.9968C18.9218 12.224 18.6322 12.3788 18.317 12.4415C18.0018 12.5042 17.6751 12.472 17.3781 12.349C17.0812 12.226 16.8274 12.0177 16.6489 11.7505C16.4703 11.4833 16.375 11.1691 16.375 10.8477C16.375 10.4167 16.5462 10.0034 16.851 9.69866C17.1557 9.39391 17.569 9.22271 18 9.22271ZM11 16.9727C10.6786 16.9727 10.3644 16.8774 10.0972 16.6988C9.82998 16.5203 9.6217 16.2665 9.4987 15.9696C9.37571 15.6726 9.34353 15.3459 9.40623 15.0307C9.46893 14.7155 9.6237 14.4259 9.85096 14.1987C10.0782 13.9714 10.3678 13.8166 10.683 13.7539C10.9982 13.6912 11.3249 13.7234 11.6219 13.8464C11.9188 13.9694 12.1726 14.1777 12.3511 14.4449C12.5297 14.7121 12.625 15.0263 12.625 15.3477C12.625 15.7787 12.4538 16.192 12.1491 16.4968C11.8443 16.8015 11.431 16.9727 11 16.9727ZM18 21.4727C17.6786 21.4727 17.3644 21.3774 17.0972 21.1988C16.83 21.0203 16.6217 20.7665 16.4987 20.4696C16.3757 20.1726 16.3435 19.8459 16.4062 19.5307C16.4689 19.2155 16.6237 18.9259 16.851 18.6987C17.0782 18.4714 17.3678 18.3166 17.683 18.2539C17.9982 18.1912 18.3249 18.2234 18.6219 18.3464C18.9188 18.4694 19.1726 18.6777 19.3511 18.9449C19.5297 19.2121 19.625 19.5263 19.625 19.8477C19.625 20.0611 19.583 20.2724 19.5013 20.4696C19.4196 20.6667 19.3 20.8459 19.1491 20.9968C18.9982 21.1477 18.819 21.2673 18.6219 21.349C18.4247 21.4307 18.2134 21.4727 18 21.4727Z" fill="#F5F6F7"/>
</svg>
