<svg width="17" height="17" viewBox="0 0 17 17" fill="none" xmlns="http://www.w3.org/2000/svg">
<g clip-path="url(#clip0_64_695)">
<path d="M8.5 2.94189C7.33804 2.94189 6.20217 3.28646 5.23603 3.93201C4.26989 4.57756 3.51688 5.49511 3.07221 6.56863C2.62755 7.64215 2.5112 8.82341 2.73789 9.96305C2.96458 11.1027 3.52412 12.1495 4.34575 12.9711C5.16738 13.7928 6.21421 14.3523 7.35385 14.579C8.49349 14.8057 9.67475 14.6894 10.7483 14.2447C11.8218 13.8 12.7393 13.047 13.3849 12.0809C14.0304 11.1147 14.375 9.97886 14.375 8.81689C14.3732 7.25931 13.7536 5.76603 12.6522 4.66465C11.5509 3.56327 10.0576 2.94371 8.5 2.94189ZM8.5 13.9419C7.48637 13.9419 6.49551 13.6413 5.6527 13.0782C4.8099 12.515 4.15302 11.7146 3.76512 10.7781C3.37722 9.84168 3.27573 8.81121 3.47348 7.81706C3.67123 6.8229 4.15934 5.90972 4.87608 5.19297C5.59282 4.47623 6.50601 3.98812 7.50016 3.79037C8.49432 3.59262 9.52478 3.69411 10.4613 4.08201C11.3977 4.46991 12.1981 5.12679 12.7613 5.9696C13.3244 6.8124 13.625 7.80327 13.625 8.81689C13.6233 10.1756 13.0829 11.4782 12.1221 12.439C11.1613 13.3998 9.85873 13.9402 8.5 13.9419ZM11.265 6.05189C11.3352 6.12221 11.3747 6.21752 11.3747 6.31689C11.3747 6.41627 11.3352 6.51158 11.265 6.58189L8.765 9.08189C8.73067 9.11874 8.68927 9.14829 8.64327 9.16879C8.59727 9.18928 8.54762 9.2003 8.49726 9.20119C8.44691 9.20208 8.3969 9.19282 8.3502 9.17396C8.30351 9.1551 8.26109 9.12702 8.22548 9.09141C8.18987 9.0558 8.1618 9.01339 8.14294 8.96669C8.12408 8.92 8.11482 8.86999 8.11571 8.81963C8.1166 8.76928 8.12762 8.71962 8.14811 8.67362C8.16861 8.62763 8.19816 8.58623 8.235 8.55189L10.735 6.05189C10.8053 5.98167 10.9006 5.94222 11 5.94222C11.0994 5.94222 11.1947 5.98167 11.265 6.05189ZM6.625 1.31689C6.625 1.21744 6.66451 1.12206 6.73484 1.05173C6.80516 0.981403 6.90055 0.941895 7 0.941895H10C10.0995 0.941895 10.1948 0.981403 10.2652 1.05173C10.3355 1.12206 10.375 1.21744 10.375 1.31689C10.375 1.41635 10.3355 1.51173 10.2652 1.58206C10.1948 1.65239 10.0995 1.69189 10 1.69189H7C6.90055 1.69189 6.80516 1.65239 6.73484 1.58206C6.66451 1.51173 6.625 1.41635 6.625 1.31689Z" fill="#F5F6F7"/>
</g>
<defs>
<clipPath id="clip0_64_695">
<rect width="16" height="16" fill="white" transform="translate(0.5 0.316895)"/>
</clipPath>
</defs>
</svg>
